<svg width="36" height="36" viewBox="0 0 36 36" fill="none" xmlns="http://www.w3.org/2000/svg">
<path d="M28.0155 29.4104L19.443 20.8364C17.6037 22.1441 15.3402 22.713 13.1012 22.4304C10.8622 22.1479 8.81107 21.0344 7.35431 19.3108C5.89755 17.5872 5.14149 15.3792 5.23599 13.1244C5.33048 10.8696 6.26863 8.73262 7.8645 7.13694C9.45994 5.54056 11.5969 4.60189 13.8519 4.50699C16.1068 4.41209 18.3152 5.16788 20.0391 6.62456C21.763 8.08123 22.8767 10.1325 23.1594 12.3716C23.4422 14.6108 22.8733 16.8745 21.5655 18.7139L30.138 27.2879L28.017 29.4089L28.0155 29.4104ZM14.2275 7.49994C12.8476 7.49962 11.5097 7.97495 10.4394 8.84584C9.369 9.71673 8.63153 10.93 8.35121 12.2811C8.07089 13.6322 8.26487 15.0387 8.90045 16.2635C9.53603 17.4883 10.5744 18.4566 11.8405 19.0053C13.1067 19.5539 14.5232 19.6494 15.8515 19.2756C17.1798 18.9017 18.3387 18.0815 19.1329 16.953C19.927 15.8245 20.3079 14.4568 20.2114 13.0803C20.1149 11.7037 19.5469 10.4026 18.603 9.39594L19.5105 10.2959L18.4875 9.27594L18.4695 9.25794C17.9139 8.69888 17.2528 8.25562 16.5247 7.95386C15.7965 7.65209 15.0157 7.4978 14.2275 7.49994Z" fill="#FDFDFD"/>
</svg>
