<svg width="36" height="37" viewBox="0 0 36 37" fill="none" xmlns="http://www.w3.org/2000/svg">
<path d="M24.75 5.62497C24.7498 4.3052 25.2137 3.02738 26.0605 2.0151C26.9074 1.00281 28.0831 0.320517 29.3822 0.0875826C30.6813 -0.145352 32.0209 0.0859092 33.1666 0.740905C34.3124 1.3959 35.1914 2.43292 35.6498 3.67053C36.1082 4.90814 36.1168 6.26753 35.6742 7.51086C35.2315 8.7542 34.3658 9.8023 33.2284 10.4718C32.0911 11.1413 30.7545 11.3896 29.4526 11.1731C28.1507 10.9567 26.9663 10.2894 26.1067 9.28797L10.9912 16.308C11.3387 17.4092 11.3387 18.5907 10.9912 19.692L26.1067 26.712C27.0154 25.6552 28.284 24.9734 29.6667 24.7987C31.0494 24.624 32.4477 24.9688 33.5906 25.7663C34.7336 26.5638 35.5398 27.7572 35.853 29.1153C36.1662 30.4733 35.9641 31.8993 35.2858 33.1168C34.6076 34.3343 33.5015 35.2567 32.1819 35.7051C30.8624 36.1536 29.4233 36.0962 28.1436 35.5442C26.8639 34.9921 25.8348 33.9846 25.2556 32.7169C24.6764 31.4493 24.5884 30.0118 25.0087 28.683L9.89324 21.663C9.14496 22.535 8.14757 23.157 7.03524 23.4452C5.9229 23.7334 4.74898 23.674 3.6714 23.2751C2.59381 22.8761 1.66426 22.1567 1.00778 21.2136C0.351299 20.2705 -0.000610352 19.149 -0.000610352 18C-0.000610352 16.8509 0.351299 15.7294 1.00778 14.7863C1.66426 13.8433 2.59381 13.1239 3.6714 12.7249C4.74898 12.3259 5.9229 12.2666 7.03524 12.5548C8.14757 12.843 9.14496 13.4649 9.89324 14.337L25.0087 7.31697C24.8367 6.76948 24.7494 6.19887 24.75 5.62497Z" fill="#FDFDFD"/>
</svg>
