<svg width="36" height="36" viewBox="0 0 36 36" fill="none" xmlns="http://www.w3.org/2000/svg">
<path d="M33.5521 18.909V6.02637H28.0981L27.8227 5.99397C22.7593 4.81317 19.4041 3.96177 17.7319 3.43437C15.5107 2.73417 14.6827 2.56317 13.1761 2.46237C12.0493 2.38497 10.7695 2.81877 10.1863 3.41277C9.86415 3.74037 9.62295 4.41357 9.52755 5.45757C9.50779 5.67649 9.42953 5.88607 9.30095 6.06436C9.17238 6.24266 8.99823 6.38309 8.79675 6.47097C8.34855 6.66537 7.97595 6.98217 7.66455 7.44297C7.37655 7.86417 7.18935 8.64897 7.15515 9.78477C7.14914 9.99357 7.08994 10.1974 6.98316 10.3769C6.87638 10.5565 6.72555 10.7058 6.54495 10.8108C5.49735 11.4174 4.97895 12.1014 4.87095 12.9042C4.75215 13.7916 5.04015 14.7906 5.79435 15.9282C5.97131 16.195 6.03721 16.5203 5.97805 16.8349C5.91889 17.1495 5.73933 17.4287 5.47755 17.613C4.75575 18.1206 4.35975 18.8262 4.26075 19.827C4.10235 21.4218 5.11935 22.6008 7.42155 22.8366C9.47199 23.0394 11.5422 22.8667 13.5307 22.3272C13.7563 22.2682 13.994 22.2749 14.2159 22.3465C14.4378 22.4181 14.6347 22.5515 14.7833 22.7311C14.9319 22.9108 15.0261 23.1291 15.0549 23.3605C15.0836 23.5919 15.0457 23.8266 14.9455 24.0372C14.0455 25.9416 13.5451 27.513 13.4281 28.7298C13.2751 30.3444 13.6477 31.5144 14.5189 32.4792C15.1795 33.21 16.2361 33.6276 16.6321 33.5412C17.1541 33.4296 17.4943 33.1272 17.9371 32.0688C18.1981 31.4424 18.3241 30.9096 18.5401 29.6658C18.7471 28.485 18.8605 27.9522 19.0963 27.2538C19.8073 25.137 21.5515 22.9428 23.8933 21.429C25.5346 20.3693 27.3134 19.5396 29.1799 18.963C29.2966 18.927 29.4179 18.9088 29.5399 18.909H33.5521V18.909ZM33.6277 3.57297C34.2091 3.55677 34.7311 3.68637 35.1685 3.99237C35.7265 4.38297 35.9893 4.99857 35.9947 5.70777L35.9893 18.8892C36.0505 19.5912 35.8435 20.2356 35.3539 20.7144C34.8949 21.1644 34.2955 21.3768 33.6619 21.3624H29.7289C28.138 21.8693 26.6212 22.5847 25.2181 23.49C23.3318 24.7104 21.9421 26.46 21.4111 28.0368C21.2293 28.5804 21.1321 29.0304 20.9485 30.0888C20.7001 31.509 20.5453 32.1696 20.1889 33.0192C19.4509 34.7868 18.4825 35.6508 17.1469 35.9406C15.8329 36.225 13.9195 35.4672 12.7099 34.128C11.3689 32.6448 10.7767 30.789 10.9963 28.4958C11.0899 27.5094 11.3635 26.406 11.8135 25.1766C10.2768 25.4005 8.71822 25.4344 7.17315 25.2774C3.56055 24.9084 1.53195 22.5558 1.82715 19.5822C1.95675 18.3006 2.42115 17.2116 3.21135 16.3566C2.54715 15.0768 2.28255 13.8114 2.44815 12.5766C2.63895 11.1546 3.43095 9.97017 4.74855 9.05037C4.85115 7.80297 5.13735 6.80757 5.64495 6.06237C6.04491 5.46032 6.56675 4.9489 7.17675 4.56117C7.37115 3.32997 7.77975 2.36697 8.44755 1.69017C9.55455 0.563365 11.5327 -0.108034 13.3399 0.0143656C15.0553 0.129566 16.0705 0.338366 18.4645 1.09437C20.0431 1.59297 23.3119 2.42097 28.2385 3.57297H33.6295H33.6277ZM30.5659 19.4688C30.5664 19.6298 30.5351 19.7894 30.4738 19.9383C30.4125 20.0872 30.3224 20.2226 30.2087 20.3366C30.095 20.4506 29.9599 20.5411 29.8112 20.6029C29.6624 20.6646 29.503 20.6964 29.3419 20.6964C29.1812 20.6959 29.0221 20.6638 28.8738 20.6018C28.7255 20.5399 28.5908 20.4493 28.4775 20.3353C28.3642 20.2213 28.2744 20.0861 28.2133 19.9374C28.1523 19.7888 28.1211 19.6295 28.1215 19.4688L28.1215 5.64837C28.1213 5.48763 28.1527 5.32842 28.214 5.17982C28.2753 5.03123 28.3653 4.89617 28.4788 4.78234C28.5923 4.66851 28.7271 4.57816 28.8755 4.51643C29.0239 4.4547 29.183 4.4228 29.3437 4.42257C29.5045 4.4228 29.6636 4.4547 29.812 4.51643C29.9604 4.57816 30.0952 4.66851 30.2087 4.78234C30.3222 4.89617 30.4122 5.03123 30.4735 5.17982C30.5348 5.32842 30.5662 5.48763 30.5659 5.64837L30.5659 19.4688V19.4688Z" fill="#EF3A3A"/>
</svg>
