<svg width="36" height="36" viewBox="0 0 36 36" fill="none" xmlns="http://www.w3.org/2000/svg">
<path fill-rule="evenodd" clip-rule="evenodd" d="M34.9992 16.8499C33.4116 7.98307 29.862 5.36768 27.9738 5.36768C25.0272 5.36768 24.2712 7.55828 18 7.63208C11.7288 7.55828 10.9728 5.36768 8.02621 5.36768C6.13801 5.36768 2.58661 7.98307 0.999013 16.8499C0.093613 21.9115 -0.889187 29.4679 1.45261 30.3751C4.36681 31.5037 5.35501 28.6813 8.55541 26.2963C11.8044 23.8789 13.3632 23.3101 18 23.3101C22.6368 23.3101 24.1956 23.8789 27.4446 26.2963C30.645 28.6795 31.6332 31.5037 34.5474 30.3751C36.8892 29.4679 35.9064 21.9133 34.9992 16.8499Z" fill="#FDFDFD"/>
<path fill-rule="evenodd" clip-rule="evenodd" d="M10.8 18C9.84517 18 8.9295 17.6208 8.25437 16.9456C7.57924 16.2705 7.19995 15.3548 7.19995 14.4C7.19995 13.4453 7.57924 12.5296 8.25437 11.8545C8.9295 11.1793 9.84517 10.8 10.8 10.8C11.7547 10.8 12.6704 11.1793 13.3455 11.8545C14.0207 12.5296 14.4 13.4453 14.4 14.4C14.4 15.3548 14.0207 16.2705 13.3455 16.9456C12.6704 17.6208 11.7547 18 10.8 18ZM23.4 18C22.9226 18 22.4647 17.8104 22.1272 17.4728C21.7896 17.1353 21.5999 16.6774 21.5999 16.2C21.5999 15.7227 21.7896 15.2648 22.1272 14.9273C22.4647 14.5897 22.9226 14.4 23.4 14.4C23.8773 14.4 24.3352 14.5897 24.6727 14.9273C25.0103 15.2648 25.1999 15.7227 25.1999 16.2C25.1999 16.6774 25.0103 17.1353 24.6727 17.4728C24.3352 17.8104 23.8773 18 23.4 18ZM26.9999 14.4C26.5226 14.4 26.0647 14.2104 25.7272 13.8728C25.3896 13.5353 25.1999 13.0774 25.1999 12.6C25.1999 12.1227 25.3896 11.6648 25.7272 11.3273C26.0647 10.9897 26.5226 10.8 26.9999 10.8C27.4773 10.8 27.9352 10.9897 28.2727 11.3273C28.6103 11.6648 28.7999 12.1227 28.7999 12.6C28.7999 13.0774 28.6103 13.5353 28.2727 13.8728C27.9352 14.2104 27.4773 14.4 26.9999 14.4Z" fill="#312E31"/>
</svg>
