<svg width="36" height="36" viewBox="0 0 36 36" fill="none" xmlns="http://www.w3.org/2000/svg">
<path d="M18 2.625C19.2452 2.62492 20.4432 3.10133 21.3483 3.95651C22.2535 4.81168 22.797 5.98079 22.8675 7.224L22.875 7.5H30.75C31.035 7.50009 31.3094 7.60837 31.5177 7.80296C31.726 7.99755 31.8526 8.26395 31.872 8.54832C31.8915 8.83269 31.8022 9.11384 31.6224 9.33495C31.4425 9.55606 31.1854 9.70065 30.903 9.7395L30.75 9.75H29.556L27.636 29.28C27.5398 30.2537 27.1007 31.1614 26.397 31.8412C25.6933 32.521 24.7709 32.9285 23.7945 32.991L23.5305 33H12.4695C11.4907 33 10.5438 32.6519 9.79801 32.0179C9.05223 31.384 8.55618 30.5055 8.3985 29.5395L8.364 29.2785L6.4425 9.75H5.25C4.97814 9.74999 4.71549 9.65154 4.5106 9.47285C4.30572 9.29416 4.17247 9.04733 4.1355 8.778L4.125 8.625C4.12501 8.35314 4.22346 8.09049 4.40215 7.8856C4.58084 7.68072 4.82767 7.54747 5.097 7.5105L5.25 7.5H13.125C13.125 6.20707 13.6386 4.96709 14.5529 4.05285C15.4671 3.13861 16.7071 2.625 18 2.625ZM27.2955 9.75H8.703L10.6035 29.058C10.6456 29.4888 10.8354 29.8918 11.1408 30.1986C11.4462 30.5053 11.8484 30.697 12.279 30.741L12.4695 30.75H23.5305C24.4305 30.75 25.194 30.1125 25.368 29.247L25.398 29.058L27.294 9.75H27.2955Z" fill="#FDFDFD"/>
<path d="M20.625 13.875C20.8969 13.875 21.1595 13.9735 21.3644 14.1522C21.5693 14.3308 21.7025 14.5777 21.7395 14.847L21.75 15V25.5C21.7499 25.785 21.6416 26.0594 21.447 26.2677C21.2524 26.476 20.9861 26.6026 20.7017 26.622C20.4173 26.6415 20.1362 26.5522 19.9151 26.3724C19.6939 26.1925 19.5494 25.9354 19.5105 25.653L19.5 25.5V15C19.5 14.7016 19.6185 14.4155 19.8295 14.2045C20.0405 13.9935 20.3266 13.875 20.625 13.875ZM15.375 13.875C15.6469 13.875 15.9095 13.9735 16.1144 14.1522C16.3193 14.3308 16.4525 14.5777 16.4895 14.847L16.5 15V25.5C16.4999 25.785 16.3916 26.0594 16.197 26.2677C16.0024 26.476 15.7361 26.6026 15.4517 26.622C15.1673 26.6415 14.8862 26.5522 14.6651 26.3724C14.4439 26.1925 14.2994 25.9354 14.2605 25.653L14.25 25.5V15C14.25 14.7016 14.3685 14.4155 14.5795 14.2045C14.7905 13.9935 15.0766 13.875 15.375 13.875ZM18 4.875C17.3412 4.87502 16.7065 5.12276 16.2219 5.56902C15.7373 6.01528 15.4382 6.62745 15.384 7.284L15.375 7.5H20.625C20.625 6.80381 20.3484 6.13613 19.8562 5.64384C19.3639 5.15156 18.6962 4.875 18 4.875Z" fill="#FDFDFD"/>
</svg>
